# xmcd
#
# Track frame offsets:
#	150
#	21665
#	41893
#	59237
#	77849
#	94745
#	108190
#	126341
#	143738
#	160240
#
# Disc length: 2347 seconds
#
# Revision: 4
# Processed by: cddbd v1.5.2PL0 Copyright (c) Steve Scherf et al.
# Submitted via: audiograbber 1.83.01
#
DISCID=9009290a
DTITLE=ΒΑΣΙΛΗΣ ΣΚΟΥΛΑΣ - ΑΣΠΡΟ ΜΑΝΤΗΛΙ ΑΝΕΜΙΖΕ
DYEAR=2007
DGENRE=Folk
TTITLE0=άσπρο μαντήλι ανέμιζε
TTITLE1=ανέμου παραζάλη
TTITLE2=ανάμεσα στο γέλιο και στο δάκρυ
TTITLE3=το όνειρο έιναι μια φωτιά
TTITLE4=το μέσα μου σημάδι
TTITLE5=σαν δαχτυλίδι
TTITLE6=η πιο μεγάλη μοναξιά
TTITLE7=μικρό μου
TTITLE8=πέρνα με απέναντι στο φως
TTITLE9=τραγούδι μου απροστάτευτο
EXTD=
EXTT0=
EXTT1=Pantelis Thalassinos
EXTT2=
EXTT3=
EXTT4=
EXTT5=
EXTT6=
EXTT7=
EXTT8=Maria Alexiou
EXTT9=
PLAYORDER=
